<?xml version="1.0" standalone="no"?>
<!DOCTYPE svg PUBLIC "-//W3C//DTD SVG 20010904//EN"
 "http://www.w3.org/TR/2001/REC-SVG-20010904/DTD/svg10.dtd">
<svg version="1.0" xmlns="http://www.w3.org/2000/svg"
 width="700.000000pt" height="700.000000pt" viewBox="0 0 700.000000 700.000000"
 preserveAspectRatio="xMidYMid meet">
<metadata>
Created by potrace 1.14, written by Peter Selinger 2001-2017
</metadata>
<g transform="translate(0.000000,700.000000) scale(0.100000,-0.100000)"
fill="#000000" stroke="none">
<path d="M3285 6759 c-1027 -52 -1971 -592 -2546 -1457 -355 -534 -539 -1147
-539 -1794 0 -514 110 -988 334 -1439 684 -1378 2236 -2093 3731 -1718 439
110 888 334 1250 624 134 107 391 364 499 500 690 868 896 2011 551 3052 -375
1128 -1327 1961 -2495 2182 -234 44 -531 63 -785 50z m95 -2297 c40 -40 45
-93 26 -264 -16 -151 -13 -209 12 -230 10 -9 52 -13 126 -13 106 0 115 -2 201
-38 50 -21 109 -40 131 -44 40 -5 42 -4 48 24 4 17 0 100 -9 186 -21 209 -8
283 54 320 30 17 106 23 128 9 7 -4 22 -62 33 -127 66 -389 182 -614 374 -729
71 -43 184 -82 197 -69 6 6 5 54 -1 128 -16 165 -1 230 59 255 35 14 114 6
129 -13 11 -13 24 -72 71 -303 83 -407 189 -537 447 -551 l91 -6 22 36 c39 63
46 138 28 269 -21 139 -22 238 -3 281 7 18 29 47 50 64 41 36 142 71 158 55
11 -11 13 -213 3 -362 -14 -211 38 -333 142 -333 61 0 198 40 340 99 73 31
137 53 143 49 6 -4 10 -96 10 -250 l0 -245 -37 -18 c-64 -32 -174 -71 -278
-98 -81 -21 -131 -27 -261 -31 -245 -8 -422 28 -680 137 -163 69 -326 159
-684 380 -426 262 -620 363 -815 423 -278 87 -542 82 -842 -14 -222 -71 -390
-161 -783 -419 -316 -206 -348 -226 -501 -300 -141 -68 -271 -112 -394 -135
-90 -17 -105 -15 -102 13 1 22 -279 373 -296 369 -9 -1 -13 73 -15 326 l-2
327 27 11 c41 16 134 7 166 -16 15 -11 37 -40 49 -65 20 -40 22 -65 28 -255 6
-214 12 -246 49 -279 17 -15 30 -17 73 -12 88 11 145 35 198 83 67 60 107 146
165 353 60 214 81 270 126 341 61 94 107 109 161 52 20 -21 23 -34 23 -101 -1
-42 -5 -124 -9 -183 -13 -157 4 -175 112 -120 32 16 98 45 146 65 114 46 165
76 209 125 61 68 68 124 42 370 -17 155 -13 225 16 282 44 89 210 94 255 8 15
-30 16 -50 9 -169 -15 -228 -13 -275 10 -300 19 -21 27 -22 115 -18 218 11
322 103 464 415 56 123 98 199 138 253 29 40 69 40 108 2z"/>
</g>
</svg>
